<svg width="17" height="22" viewBox="0 0 17 22" fill="none" xmlns="http://www.w3.org/2000/svg">
<g clip-path="url(#clip0_858_39)">
<path d="M11.0107 12.6634C11.9158 12.6641 12.7837 13.0238 13.424 13.6636C14.0642 14.3034 14.4245 15.171 14.4258 16.0761V19.4913H2.56421V16.0761C2.56486 15.6273 2.6539 15.183 2.82625 14.7686C2.9986 14.3542 3.25089 13.9779 3.5687 13.661C3.88652 13.3441 4.26364 13.0929 4.67853 12.9217C5.09343 12.7506 5.53797 12.6628 5.98678 12.6634H11.0107ZM11.0107 11.0522H5.98678C4.65436 11.0522 3.37652 11.5815 2.43435 12.5237C1.49219 13.4659 0.962891 14.7437 0.962891 16.0761L0.962891 21.105H16.037V16.0761C16.037 15.4162 15.907 14.7627 15.6544 14.153C15.4017 13.5433 15.0315 12.9894 14.5647 12.5228C14.0979 12.0563 13.5438 11.6863 12.934 11.434C12.3242 11.1816 11.6706 11.0519 11.0107 11.0522Z" fill="#212549"/>
<path d="M11.0106 13.7358H5.98668C5.36642 13.7371 4.77194 13.9841 4.33336 14.4227C3.89477 14.8613 3.64779 15.4558 3.64648 16.076V18.4162H13.3532V16.076C13.3519 15.4554 13.1046 14.8605 12.6655 14.4218C12.2264 13.9832 11.6313 13.7365 11.0106 13.7358Z" fill="#FBAA19"/>
<path d="M8.50002 1.7113C9.17558 1.7113 9.83597 1.91166 10.3976 2.28703C10.9593 2.6624 11.397 3.19592 11.6555 3.82011C11.9139 4.44429 11.9814 5.13109 11.8494 5.79363C11.7174 6.45617 11.3919 7.06469 10.914 7.54221C10.4362 8.01973 9.82741 8.3448 9.16477 8.47629C8.50213 8.60779 7.81538 8.53981 7.19139 8.28094C6.56739 8.02208 6.03419 7.58396 5.65922 7.02202C5.28426 6.46007 5.08438 5.79955 5.08487 5.12399C5.08618 4.21886 5.44648 3.35122 6.08674 2.71143C6.72699 2.07164 7.5949 1.71195 8.50002 1.7113ZM8.50002 0.100098C7.50569 0.0996095 6.53356 0.394047 5.7066 0.946163C4.87964 1.49828 4.23501 2.28326 3.85428 3.20181C3.47354 4.12036 3.37379 5.1312 3.56765 6.10644C3.76152 7.08169 4.24028 7.97753 4.94338 8.68063C5.64648 9.38373 6.54232 9.86249 7.51756 10.0564C8.49281 10.2502 9.50365 10.1505 10.4222 9.76974C11.3407 9.389 12.1257 8.74437 12.6778 7.91741C13.23 7.09045 13.5244 6.11832 13.5239 5.12399C13.5239 3.79157 12.9946 2.51372 12.0524 1.57156C11.1103 0.629399 9.83244 0.100098 8.50002 0.100098Z" fill="#212549"/>
</g>
<defs>
<clipPath id="clip0_858_39">
<rect width="15.0741" height="21" fill="white" transform="translate(0.962891 0.100098)"/>
</clipPath>
</defs>
</svg>
